<?xml version="1.0" encoding="UTF-8" standalone="no"?>
<!-- Created with Inkscape (http://www.inkscape.org/) -->

<svg
   xmlns:dc="http://purl.org/dc/elements/1.1/"
   xmlns:cc="http://creativecommons.org/ns#"
   xmlns:rdf="http://www.w3.org/1999/02/22-rdf-syntax-ns#"
   xmlns:svg="http://www.w3.org/2000/svg"
   xmlns="http://www.w3.org/2000/svg"
   xmlns:sodipodi="http://sodipodi.sourceforge.net/DTD/sodipodi-0.dtd"
   xmlns:inkscape="http://www.inkscape.org/namespaces/inkscape"
   width="183.50449mm"
   height="120.09455mm"
   viewBox="0 0 183.50449 120.09455"
   version="1.1"
   id="svg8"
   inkscape:version="0.92.4 (5da689c313, 2019-01-14)"
   sodipodi:docname="pk5.svg">
  <defs
     id="defs2" />
  <sodipodi:namedview
     id="base"
     pagecolor="#ffffff"
     bordercolor="#666666"
     borderopacity="1.0"
     inkscape:pageopacity="0.0"
     inkscape:pageshadow="2"
     inkscape:zoom="0.7"
     inkscape:cx="327.66491"
     inkscape:cy="192.68624"
     inkscape:document-units="mm"
     inkscape:current-layer="text817"
     showgrid="false"
     inkscape:window-width="1269"
     inkscape:window-height="857"
     inkscape:window-x="188"
     inkscape:window-y="167"
     inkscape:window-maximized="0"
     inkscape:pagecheckerboard="true" />
  <metadata
     id="metadata5">
    <rdf:RDF>
      <cc:Work
         rdf:about="">
        <dc:format>image/svg+xml</dc:format>
        <dc:type
           rdf:resource="http://purl.org/dc/dcmitype/StillImage" />
        <dc:title></dc:title>
      </cc:Work>
    </rdf:RDF>
  </metadata>
  <g
     inkscape:label="Layer 1"
     inkscape:groupmode="layer"
     id="layer1"
     transform="translate(-8.8846555,-17.260716)">
    <g
       aria-label="PK"
       transform="scale(0.96190239,1.0396065)"
       style="font-style:normal;font-variant:normal;font-weight:normal;font-stretch:normal;font-size:125.70849609px;line-height:1.25;font-family:'EngrvrsOldEng Bd BT';-inkscape-font-specification:'EngrvrsOldEng Bd BT';letter-spacing:0px;word-spacing:0px;fill:#00ffff;fill-opacity:1;stroke:none;stroke-width:3.14271235"
       id="text817">
      <path
         d="m 21.267242,131.9996 q 3.989771,-4.41944 5.647061,-8.65474 1.65729,-4.2353 1.65729,-9.82098 v -13.07417 h -0.491049 q -5.769824,0 -10.250644,2.14834 -4.419439,2.08695 -7.9795432,6.56778 Q 10.157262,98.976562 15.06775,92.777071 20.03962,86.57758 28.571593,85.718245 V 67.979106 q -0.491049,-0.06138 -0.982098,-0.06138 -0.429668,-0.06138 -1.411765,-0.06138 -4.235296,0 -6.629159,1.718671 -2.332482,1.718671 -2.76215,5.217393 -1.595908,-2.946292 -2.332482,-5.340155 -0.675192,-2.455244 -0.675192,-4.726345 0,-5.033251 3.437342,-8.040925 3.437342,-3.007673 9.207165,-3.007673 0.920717,0 1.350384,0.06138 0.429668,0 0.797955,0 V 41.216946 q 0,-4.664964 -2.393863,-7.488495 -2.332482,-2.82353 -6.13811,-2.82353 -4.235296,0 -6.629159,2.393863 -2.332482,2.393863 -2.946293,7.24297 -0.6751923,-1.964195 -0.9820978,-3.437342 -0.2455244,-1.473146 -0.2455244,-2.823531 0,-6.567777 5.4015372,-11.294122 5.462918,-4.787726 12.951412,-4.787726 7.365732,0 11.846553,5.03325 4.48082,4.971869 5.094631,13.93351 l 7.304351,-4.726345 v -7.7954 h 2.271101 v 6.260873 l 21.72891,-14.301797 q 3.375961,4.480821 8.654735,7.181589 5.340156,2.700769 13.258318,3.989772 l -8.716116,7.549875 v 47.386211 q 0,2.578006 0.675192,5.03325 0.736573,2.455244 2.20972,5.156012 h -0.368287 q -8.34783,0 -15.222513,4.051153 -6.874684,4.051154 -11.907934,12.030694 -2.086957,-1.53453 -4.542201,-2.76215 -2.455244,-1.22762 -5.5243,-2.14834 v 27.68288 h -1.104859 q -4.358059,0 -8.34783,-1.90281 -3.928391,-1.90282 -6.874684,-5.40154 -2.946292,3.80563 -6.69054,5.70844 -3.682866,1.9642 -8.040924,1.9642 -0.306905,0 -0.982098,-0.0614 -0.675192,-0.0614 -1.043478,-0.0614 z M 54.351655,51.528971 v 20.501288 q 2.578007,-0.982098 4.849108,-1.411765 2.332481,-0.491049 4.48082,-0.491049 2.455244,0 4.787726,0.55243 2.332482,0.55243 4.849107,1.718671 V 51.528971 q -2.516625,0.982098 -5.03325,1.473146 -2.455245,0.429668 -5.156013,0.429668 -2.393863,0 -4.542202,-0.429668 -2.086957,-0.491048 -4.235296,-1.473146 z m 0,22.895151 v 10.925836 q 4.112534,0.920716 8.409211,3.069055 4.358059,2.086957 10.55755,6.445016 V 74.915171 q -2.455244,-1.350385 -4.849107,-1.964196 -2.332482,-0.675192 -4.664964,-0.675192 -2.148338,0 -4.48082,0.55243 -2.332482,0.491049 -4.97187,1.595909 z m 0,-41.125338 v 15.5908 q 2.516626,1.166241 4.787726,1.71867 2.271101,0.55243 4.542202,0.55243 2.332482,0 4.726345,-0.613811 2.455244,-0.613811 4.910488,-1.780052 V 36.060933 q -4.235296,0 -7.181589,-1.841433 -2.946293,-1.841433 -4.726345,-5.58568 z m -9.575451,6.13811 v 73.534556 q 0,8.59336 1.534527,11.60103 1.595909,3.06906 5.524299,4.2353 V 34.77193 Z"
         style="font-style:normal;font-variant:normal;font-weight:normal;font-stretch:normal;font-family:'EngrvrsOldEng Bd BT';-inkscape-font-specification:'EngrvrsOldEng Bd BT';fill:#f9f5d7;fill-opacity:1;stroke-width:3.14271235"
         id="path838"
         inkscape:connector-curvature="0" />
      <path
         d="m 114.01409,97.012367 q 2.14834,-2.516625 3.13043,-5.217393 0.9821,-2.76215 0.9821,-6.199492 v -9.452689 h -3.49872 q -3.98977,0 -6.01535,1.411765 -2.02558,1.411765 -2.39386,4.358058 -1.59591,-1.902814 -2.33248,-3.867009 -0.6752,-2.025577 -0.6752,-4.542202 0,-5.831204 3.56011,-8.777497 3.5601,-3.007674 10.49617,-3.007674 h 0.85933 v -1.534528 q 0,-8.34783 3.68287,-12.890031 3.68286,-4.542202 13.19693,-7.979543 -1.41176,2.025576 -2.02557,4.358058 -0.61381,2.332482 -0.61381,5.953967 v 2.639387 23.631724 q 0,7.488495 -3.92839,12.153458 -3.92839,4.603583 -14.42456,8.961641 z m 39.83633,-35.785182 22.77239,-39.774954 q 2.2711,2.455244 4.60358,3.682866 2.33249,1.227622 4.41944,1.227622 1.9642,0 4.11254,-1.227622 2.14834,-1.227622 5.21739,-4.173915 -0.73657,9.514071 -4.97187,14.731465 -4.2353,5.156012 -11.23274,5.156012 -2.33248,0 -4.5422,-0.736573 -2.20972,-0.736573 -4.66497,-2.271101 l -8.77749,15.468038 q 9.75959,5.094631 16.20461,21.053718 0.92071,2.271101 1.35038,3.437341 3.86701,9.329928 7.85678,13.626605 3.98977,4.235296 8.7775,4.235296 0.85934,0 2.02558,-0.184143 1.22762,-0.245525 3.00767,-0.736574 -5.46292,6.138114 -8.16369,9.636834 -2.63938,3.43734 -3.68286,5.70844 -8.22507,-0.18414 -12.82865,-3.49872 -4.5422,-3.37596 -7.24297,-11.294124 -4.66497,3.682866 -8.90026,7.488494 -4.2353,3.74425 -7.97955,7.54988 -4.66496,-2.08696 -9.3913,-3.13044 -4.72635,-0.9821 -9.69822,-0.9821 -5.46292,0 -11.23274,0.9821 -5.76982,0.9821 -12.52174,3.00767 7.7954,-9.63683 16.75704,-14.73146 9.02302,-5.094632 18.29156,-5.094632 5.95397,0 10.43479,1.595909 4.5422,1.595909 8.53198,5.156012 l 4.5422,-3.37596 q -3.37596,-11.048598 -6.5064,-17.309471 -3.06906,-6.260872 -6.56778,-9.329927 v 7.181589 q 0,6.506396 -3.98977,9.268546 -3.98977,2.76215 -15.34527,3.805628 2.2711,-1.964195 3.19181,-4.542201 0.92072,-2.639388 0.92072,-8.654736 V 51.406209 q 0,-10.496169 4.23529,-15.774943 4.29668,-5.278775 15.40666,-9.636833 -2.39386,2.700768 -3.43734,5.769823 -0.9821,3.069055 -0.9821,8.961641 z M 101.67649,36.42922 q 3.06905,-8.34783 8.71611,-13.196937 5.64706,-4.910488 12.0307,-4.910488 3.62148,0 9.69821,2.393863 6.13811,2.393863 9.26855,2.393863 2.51662,0 4.84911,-0.736573 2.39386,-0.797955 4.8491,-2.393863 -4.72634,7.058826 -11.0486,11.416885 -6.32225,4.296677 -11.60102,4.296677 -2.82353,0 -8.53198,-2.086958 -5.70844,-2.086957 -8.53197,-2.086957 -2.20972,0 -4.60358,1.227622 -2.39387,1.166241 -5.09463,3.682866 z"
         style="font-style:normal;font-variant:normal;font-weight:normal;font-stretch:normal;font-family:'EngrvrsOldEng Bd BT';-inkscape-font-specification:'EngrvrsOldEng Bd BT';fill:#f9f5d7;fill-opacity:1;stroke-width:3.14271235"
         id="path840"
         inkscape:connector-curvature="0" />
    </g>
  </g>
</svg>
