<svg role="img" viewBox="0 0 24 24" xmlns="http://www.w3.org/2000/svg">
  <title>DCU</title>
  <path d="m 2.9715766,13.872148 v -0.25712 L 0.34611162,16.233382 H 1.0151456 l 2.364096,-2.361234 z m 1.104732,-4.2405949
    c 1.296796,0 1.698249,0.8742549 1.806621,1.6076919 l 0.017,0.115238 2.047722,-2.0454335 -0.02264,-0.039067 C 7.8556246,9.1503309
    7.7889336,9.0460445 7.7210166,8.9514024 7.1456446,8.1566688 6.4489856,7.6792897 5.5285526,7.4489772 l -0.0322,-0.00802
    -2.190666,2.1905851 z M 2.9715766,9.5986944 5.1934636,7.376889 5.0796966,7.3590751 c -0.378814,-0.059501 -0.80495,-0.088268
    -1.30268,-0.088268 H 0.34611162 V 15.277805 L 2.9715766,12.652094 Z M 18.606352,7.1906287 H 18.238897 L 16.060163,9.3392043
    C 15.491492,8.403161 14.597621,7.6839453 13.533345,7.3346357 L 11.18298,9.6706156 c 0.263985,-0.1400829 0.558128,-0.2207499
    0.869843,-0.2207499 0.779532,0 1.455349,0.4906201 1.795179,1.2093453 h 2.211753 l 0.0031,2.164757 H 13.81898 c -0.116627,0.229986
    -0.268889,0.434146 -0.447467,0.605204 l 0.02067,-0.0067 -2.687824,2.69657 c 0.432673,0.131583 0.891991,0.202688 1.368227,0.202688
    1.818471,0 3.389795,-1.034445 4.155924,-2.539895 4.92e-4,0.0018 2.377826,-2.356495 2.377826,-2.356495 z m -7.192814,6.6677853
    -1.7866804,1.77581 c 0.159454,0.09766 0.325527,0.185688 0.4970764,0.264066 l 1.92284,-1.923821 c -0.221404,-7.39e-4
    -0.4339,-0.04217 -0.633236,-0.116055 z m 12.301044,-1.160063 -0.0017,-5.5077223 h -0.63675 l -1.908777,1.8987297 v 3.3864446
    c 0,1.208854 -0.653424,1.476354 -1.300228,1.473657 -0.07037,-3.29e-4 -0.140492,-0.0039 -0.209961,-0.01071 l -1.893092,1.878298
    c 0.527644,0.301498 1.21711,0.499201 2.12275,0.499201 3.884502,0 3.8277,-3.617902 3.8277,-3.617902 z m -5.086491,0.138367
    -1.952753,1.940822 c 0.222793,0.34792 0.527561,0.680558 0.941519,0.948138 l 1.835472,-1.820433 c -0.403006,-0.09399
    -0.739811,-0.368925 -0.824238,-1.068527 z m 2.539323,-5.6460893 v 1.6611437 l 1.670298,-1.6611437 z m -2.561062,5.3454083
    v -0.813286 l -2.318737,2.305578 c 0.07307,0.214375 0.169098,0.439457 0.296595,0.662414 l 2.026718,-2.013723 c -0.002,-0.04634
    -0.0045,-0.09145 -0.0045,-0.140983 z m -8.560878,-0.510149 c -0.01283,-0.102734 -0.02174,-0.206857 -0.02174,-0.313513 0,-0.440275
    0.114584,-0.849737 0.30959,-1.19725 l -2.1528264,2.13975 V 12.417206 L 13.351661,7.2792264 c -0.406439,-0.1152376 -0.835108,-0.1783329
    -1.27906,-0.1783329 -1.770089,0 -3.3092114,0.9783785 -4.0965894,2.4186904 -4.1e-4,-0.0019 -9.84e-4,-0.00364 -0.0014,-0.00554
    -0.0021,0.00397 -0.0046,0.0076 -0.0067,0.011606 l -2.051809,2.0487021 0.0011,0.02566 c 0.0022,0.05639 0.0034,0.111315
    0.0034,0.163622 0,1.399202 -0.62441,2.108692 -1.855822,2.108692 h -0.449923 l -2.364831,2.361071 h 2.688315 c
    2.053361,0 3.495798,-0.785497 4.172597,-2.271986 l 0.176616,-0.176617 c 0,-8.3e-5 0,-8.3e-5 8.2e-5,-1.64e-4 z m 0.165665,0.631847
    -1.8413564,1.847159 c 0.310325,0.402679 0.685625,0.753706 1.111189,1.036652 l 1.7650214,-1.753743 c -0.457602,-0.221486
    -0.826281,-0.625881 -1.034854,-1.130068 z m 7.726587,-5.467103 -1.877481,1.8500196 4.11e-4,-1.8500196 z"/>
</svg>
