<svg role="img" viewBox="0 0 24 24" xmlns="http://www.w3.org/2000/svg">
  <title>Fidelity</title>
  <path fill='#a89984' d="m 10.295314,14.490131 h 4.276639 l 1.251583,0.811837 H 10.106852 L 7.8308093,22.48769 7.5408677,23.236707
  C 4.7042714,22.134928 2.080299,19.588273 0.98335293,16.727515 -0.19562085,13.823705 -0.18520654,10.572698 1.012347,7.6765015
  2.1334549,4.8157429 4.8347451,2.2304297 7.7100002,1.1673098 9.9715454,0.22983254 12.996603,0.12835286 15.393455,0.86770428
  18.265989,1.7257378 20.712612,3.629241 22.250576,6.2026313 c 1.691326,2.8269312 2.160066,6.4125437 1.135605,9.6357297 -0.68369,2.221385
  -2.014583,4.18828 -3.822398,5.649031 l -0.314103,-0.488068 -2.84626,-4.774375 4.397448,2.450007 c 0.02416,0 0.03866,-0.02416
  0.02416,-0.04832 l -5.760175,-4.9725 7.451502,1.135605 c 0.02416,0 0.03382,-0.0097 0.03382,-0.02416 l -0.04832,-0.03866
  -7.021421,-2.459671 7.296865,-1.763813 c 0.02416,0 0.02416,-0.02416 0.01449,-0.03866 L 15.306462,10.95284 20.66555,6.917818
  21.168117,6.5167319 c 0.0097,-0.024159 -0.03866,-0.03866 -0.05316,-0.014493 L 15.55774,9.3243375 14.53328,9.8365684
  18.167216,3.4288567 c 0,-0.014493 0,-0.038661 -0.02416,-0.024158 L 13.397677,8.976412 14.306161,1.6553839 c 0,-0.014493
  -0.02416,-0.028996 -0.04832,-0.014493 L 12.068782,8.7541261 11.459905,6.5505687 10.16,1.4282654 c -0.01449,-0.014493
  -0.03866,-0.024158 -0.04832,0 L 10.1455,2.0516403 10.633569,9.0247378 6.1201434,3.153419 c -0.00966,-0.00966 -0.024161,0
  -0.033826,0.00966 L 9.4979661,9.6626104 3.0419307,6.1398192 c -0.00966,0 -0.033826,0.014493 -0.033826,0.024158 L 8.1545696,10.387462
  8.7441178,10.87553 1.4182573,10.102352 c -0.024163,0.0097 -0.024163,0.03382 0,0.04833 l 7.0987394,2.077915 -7.0600805,2.068251 c
  -0.01062,0.01613 -0.01062,0.03703 0,0.05316 l 7.2872016,-0.850496 -5.7215164,4.861356 c -0.00966,0 -0.024161,0.02416 0,0.03866 l
  0.077318,-0.02416 4.5859113,-2.401683 1.0727843,-1.710657 H 9.981203 L 9.1307062,13.663809 11.967303,9.1165558 10.295306,14.490141"/>
</svg>
